# xmcd
# Copyright (C) 1995-1998 Ti Kan
#
# Track frame offsets:
#       150
#       10970
#       23097
#       27039
#       39613
#       43612
#       51211
#       60443
#       61390
#       71478
#       85931
#       95534
#       98242
#       107571
#       109597
#       119504
#       122414
#       137086
#       147306
#       148828
#       161405
#       167242
#       181271
#       189528
#       196792
#       208427
#
# Disc length: 3599 seconds
#
# Revision: 0
# Processed by: cddbd v1.5.2PL0 Copyright (c) Steve Scherf et al.
# Submitted via: CD-Import v1.0
#
DISCID=700e0d1a
DTITLE=Oy - First Box Then Walk
DYEAR=10
DGENRE=
TTITLE0=First Box Then Walk
TTITLE1=Trolls
TTITLE2=Gap
TTITLE3=Hatching
TTITLE4=World Whale
TTITLE5=Camp Tiki
TTITLE6=Tooth
TTITLE7=Waha!
TTITLE8=Kumakey
TTITLE9=Snake
TTITLE10=Sex
TTITLE11=Dangeroo
TTITLE12=Twenty
TTITLE13=The Kitten
TTITLE14=Aeh
TTITLE15=Positivili Two
TTITLE16=Cloudy Gallery
TTITLE17=Dogrose Battle
TTITLE18=Toilet Witch
TTITLE19=Naughty Girl
TTITLE20=I'll Build My Church
TTITLE21=Laundry
TTITLE22=Bone Bells
TTITLE23=New Year
TTITLE24=Rosa
TTITLE25=Tonight
EXTD=
EXTT0=
EXTT1=
EXTT2=
EXTT3=
EXTT4=
EXTT5=
EXTT6=
EXTT7=
EXTT8=
EXTT9=
EXTT10=
EXTT11=
EXTT12=
EXTT13=
EXTT14=
EXTT15=
EXTT16=
EXTT17=
EXTT18=
EXTT19=
EXTT20=
EXTT21=
EXTT22=
EXTT23=
EXTT24=
EXTT25=
PLAYORDER=
